<svg
   xmlns:dc="http://purl.org/dc/elements/1.1/"
   xmlns:cc="http://creativecommons.org/ns#"
   xmlns:rdf="http://www.w3.org/1999/02/22-rdf-syntax-ns#"
   xmlns:svg="http://www.w3.org/2000/svg"
   xmlns="http://www.w3.org/2000/svg"
   width="163px"
   height="45px"
   viewBox="0 0 163 45"
   xml:space="preserve"
   id="svg2"
   version="1.1">
                <g id="Page-1" stroke="none" stroke-width="1" fill="none" fill-rule="evenodd">
                  <g id="Group">
                    <path d="M0.703757385,27 L19.827798,27 L19.827798,20.3235598 L17.4137179,20.3235598 L17.4137179,24.7367999 L6.81439758,24.7367999 L6.81439758,2.74603922 L10.2846377,2.74603922 L10.2846377,0.482839142 L0.703757385,0.482839142 L0.703757385,2.74603922 L4.1739975,2.74603922 L4.1739975,24.8122399 L0.703757385,24.8122399 L0.703757385,27 Z M21.4120381,27 L29.8990383,27 L29.8990383,24.8122399 L26.8437182,24.8122399 L29.3332383,17.9849197 L39.6685186,17.9849197 L42.1957587,24.8122399 L39.1404386,24.8122399 L39.1404386,27 L47.6274389,27 L47.6274389,24.8122399 L44.9115988,24.8122399 L35.9719585,0.482839142 L33.0675184,0.482839142 L24.1278781,24.8122399 L21.4120381,24.8122399 L21.4120381,27 Z M30.0499183,15.7594396 L34.0859585,4.89607928 C34.3877185,4.02851926 34.4631585,3.19867923 34.4631585,3.19867923 L34.5763185,3.19867923 C34.5763185,3.19867923 34.6894785,4.02851926 34.9912385,4.89607928 L38.9518386,15.7594396 L30.0499183,15.7594396 Z M50.079239,27 L59.6601193,27 L59.6601193,24.8122399 L56.1898792,24.8122399 L56.1898792,16.5138397 L62.1873594,16.5138397 C63.6207194,16.5138397 64.8654795,16.4006797 66.1102395,15.9857596 C69.0523996,14.9295996 70.9383997,12.1005995 70.9383997,8.4417594 C70.9383997,5.04695929 69.2787196,2.4065592 66.6760395,1.23723917 C65.4312795,0.633719147 63.7715994,0.482839142 62.1496394,0.482839142 L50.079239,0.482839142 L50.079239,2.67059921 L53.5494791,2.67059921 L53.5494791,24.8122399 L50.079239,24.8122399 L50.079239,27 Z M56.1898792,14.2506396 L56.1898792,2.74603922 L61.9233194,2.74603922 C63.3189594,2.74603922 64.5637195,2.97235922 65.5067195,3.38727924 C67.2418395,4.29255927 68.2602796,6.02767932 68.2602796,8.4417594 C68.2602796,11.0444395 67.0909595,12.9304395 65.1295195,13.7225596 C64.2242394,14.0997596 63.1680794,14.2506396 61.9233194,14.2506396 L56.1898792,14.2506396 Z M77.0490399,3.68903925 L79.9534799,3.68903925 L79.9534799,0.482839142 L77.0490399,0.482839142 L77.0490399,3.68903925 Z M73.9937198,27 L82.97108,27 L82.97108,24.8876799 L79.7648799,24.8876799 L79.7648799,8.02683939 L73.8051198,8.02683939 L73.8051198,10.1391595 L77.1999199,10.1391595 L77.1999199,24.8876799 L73.9937198,24.8876799 L73.9937198,27 Z M86.1395602,27 L97.3424005,27 C99.3038406,27 101.001241,26.88684 102.660921,26.35876 C107.941721,24.7745199 111.185641,20.2858398 111.185641,13.7602796 C111.185641,7.34787936 108.017161,2.78375922 103.000401,1.16179916 C101.227561,0.633719147 99.6056006,0.482839142 97.3424005,0.482839142 L86.1395602,0.482839142 L86.1395602,2.67059921 L89.6098003,2.67059921 L89.6098003,24.8122399 L86.1395602,24.8122399 L86.1395602,27 Z M92.2502003,24.7367999 L92.2502003,2.74603922 L97.1160805,2.74603922 C98.9643606,2.74603922 100.473161,2.82147922 102.019681,3.34955923 C105.980281,4.74519928 108.432081,8.4794794 108.432081,13.7602796 C108.432081,19.1165197 105.867121,22.7753599 101.831081,24.0955599 C100.360001,24.5859199 98.8889206,24.7367999 97.1160805,24.7367999 L92.2502003,24.7367999 Z M117.899801,17.2305197 C117.899801,19.7200398 118.390161,21.7946398 119.521761,23.4543199 C121.219161,26.01928 124.387641,27.45264 128.084202,27.45264 C131.743042,27.45264 134.836082,26.057 136.571202,23.4920399 C137.665082,21.9077998 138.268602,19.6823198 138.268602,17.2305197 L138.268602,2.67059921 L141.738842,2.67059921 L141.738842,0.482839142 L132.157962,0.482839142 L132.157962,2.67059921 L135.628202,2.67059921 L135.628202,17.1173597 C135.628202,19.0410797 135.213282,20.6630398 134.458882,21.9455198 C133.289562,23.9446799 130.913202,25.0385599 128.084202,25.0385599 C125.217481,25.0385599 122.954281,23.9823999 121.709521,22.0586798 C120.917401,20.8139198 120.540201,19.1165197 120.540201,17.1927997 L120.540201,2.67059921 L124.010441,2.67059921 L124.010441,0.482839142 L114.429561,0.482839142 L114.429561,2.67059921 L117.899801,2.67059921 L117.899801,17.2305197 Z M145.209082,19.6068798 L145.209082,22.1341198 C145.209082,25.75524 149.735482,27.45264 153.545202,27.45264 C158.448802,27.45264 162.183083,24.6613599 162.183083,19.9840798 C162.183083,15.1181996 158.373362,13.6471196 154.525922,12.2137595 C151.319722,10.9689995 148.453002,9.95055945 148.453002,6.74435934 C148.453002,3.91535925 150.791642,2.44427921 153.809242,2.44427921 C156.185602,2.44427921 158.939163,3.34955923 158.939163,5.04695929 L158.939163,7.00839935 L161.466403,7.00839935 L161.466403,4.17939926 C161.466403,1.50127917 157.581242,0.0301991272 153.809242,0.0301991272 C149.471442,0.0301991272 145.737162,2.2933992 145.737162,6.93295935 C145.737162,11.5725195 149.358282,12.9681595 152.828522,14.2883596 C156.261042,15.5708396 159.467243,16.7778797 159.467243,20.2481198 C159.467243,23.3411599 156.977722,25.0385599 153.545202,25.0385599 C150.489882,25.0385599 147.736322,23.7560799 147.736322,21.5305998 L147.736322,19.6068798 L145.209082,19.6068798 Z" id="LAPiDUS" fill="#263238"></path>
                    <path d="M2.97135715,44 L2.97135715,35.6700003 L1.5671572,35.6700003 L1.5671572,44 L2.97135715,44 Z M20.3272467,44 L20.3272467,35.6700003 L18.9468467,35.6700003 L18.9468467,41.6557001 L14.4843469,35.6700003 L13.1039469,35.6700003 L13.1039469,44 L14.5081469,44 L14.5081469,38.0262002 L18.9468467,44 L20.3272467,44 Z M36.1599363,36.9314002 L36.1599363,35.6700003 L29.4840365,35.6700003 L29.4840365,36.9314002 L32.1139364,36.9314002 L32.1139364,44 L33.5181363,44 L33.5181363,36.9314002 L36.1599363,36.9314002 Z M51.2548258,36.9314002 L51.2548258,35.6700003 L45.304826,35.6700003 L45.304826,44 L51.3976258,44 L51.3976258,42.7386 L46.709026,42.7386 L46.709026,40.4419001 L50.7788259,40.4419001 L50.7788259,39.1805002 L46.709026,39.1805002 L46.709026,36.9314002 L51.2548258,36.9314002 Z M66.3378154,44 L67.9324154,44 L66.0641155,41.2154001 C67.1708154,40.7870001 67.7896154,39.8469001 67.7896154,38.5141002 C67.7896154,36.7053002 66.5639154,35.6700003 64.4338155,35.6700003 L61.0542156,35.6700003 L61.0542156,44 L62.4584156,44 L62.4584156,41.4891001 L64.4338155,41.4891001 C64.5647155,41.4891001 64.6956155,41.4891001 64.8146155,41.4772001 L66.3378154,44 Z M62.4584156,40.2277001 L62.4584156,36.9314002 L64.4338155,36.9314002 C65.7190155,36.9314002 66.4568154,37.4550002 66.4568154,38.5498002 C66.4568154,39.6803001 65.7190155,40.2277001 64.4338155,40.2277001 L62.4584156,40.2277001 Z M82.979705,42.1198001 L83.777005,44 L85.2764049,44 L81.635005,35.6700003 L80.1951051,35.6700003 L76.5180052,44 L77.9817052,44 L78.7790051,42.1198001 L82.979705,42.1198001 Z M82.444205,40.8703001 L79.3026051,40.8703001 L80.8734051,37.1694002 L82.444205,40.8703001 Z M97.8008946,35.6343003 C95.3375947,35.6343003 93.4216947,37.4550002 93.4216947,39.8231001 C93.4216947,42.2150001 95.3137947,44.0595 97.7532946,44.0595 C98.9313946,44.0595 100.133295,43.524 100.978194,42.691 L100.145195,41.7628001 C99.5144945,42.3697001 98.6576946,42.7505 97.8246946,42.7505 C96.1586947,42.7505 94.8496947,41.4534001 94.8496947,39.8112001 C94.8496947,38.1690002 96.1586947,36.8838002 97.8246946,36.8838002 C98.6695946,36.8838002 99.5382945,37.2884002 100.145195,37.9429002 L100.966294,36.9195002 C100.157095,36.1222003 98.9789946,35.6343003 97.8008946,35.6343003 L97.8008946,35.6343003 Z M116.037384,36.9314002 L116.037384,35.6700003 L109.361484,35.6700003 L109.361484,36.9314002 L111.991384,36.9314002 L111.991384,44 L113.395584,44 L113.395584,36.9314002 L116.037384,36.9314002 Z M126.586474,44 L126.586474,35.6700003 L125.182274,35.6700003 L125.182274,44 L126.586474,44 Z M140.431863,44 L143.799563,35.6700003 L142.335863,35.6700003 L139.741663,42.4411 L137.171264,35.6700003 L135.659964,35.6700003 L138.980064,44 L140.431863,44 Z M158.823053,36.9314002 L158.823053,35.6700003 L152.873053,35.6700003 L152.873053,44 L158.965853,44 L158.965853,42.7386 L154.277253,42.7386 L154.277253,40.4419001 L158.347053,40.4419001 L158.347053,39.1805002 L154.277253,39.1805002 L154.277253,36.9314002 L158.823053,36.9314002 Z" id="INTERACTIVE" fill="#7CBD23"></path>
                  </g>
                </g>
              </svg>